<svg width="257" height="70" viewBox="0 0 257 70" fill="none" xmlns="http://www.w3.org/2000/svg">
<path d="M168.468 10.1459C161.665 3.3855 153.493 0 143.931 0C136.322 0 129.583 2.13318 123.756 6.44199C124.68 7.19551 125.56 8.00208 126.431 8.86172C127.641 10.0716 128.744 11.3345 129.742 12.6293C133.902 9.85933 138.646 8.47966 143.931 8.47966C151.148 8.47966 157.325 11.0267 162.429 16.1315C167.524 21.2363 170.081 27.4024 170.081 34.6191C170.081 41.8358 167.524 48.0125 162.429 53.1173C157.325 58.1902 151.148 60.7161 143.931 60.7161C138.646 60.7161 133.902 59.347 129.753 56.5983C128.766 57.9037 127.651 59.1666 126.431 60.3658C125.56 61.2255 124.669 62.0533 123.746 62.7962C129.583 67.0944 136.311 69.2382 143.931 69.2382C153.493 69.2382 161.665 65.8527 168.468 59.0923C175.229 52.3213 178.614 44.16 178.614 34.5979C178.614 25.0357 175.229 16.8744 168.468 10.114V10.1459Z" fill="url(#paint0_linear_6512_4712)"/>
<path d="M190.235 65.0673C190.235 66.2347 189.821 67.2217 188.993 68.0177C188.166 68.8455 187.179 69.2594 186.043 69.2594H185.905C184.77 69.2594 183.783 68.8455 182.955 68.0177C182.127 67.2217 181.713 66.2347 181.713 65.0673V20.8012C181.713 15.049 183.74 10.1459 187.805 6.09177C191.848 2.02705 196.751 0 202.504 0C209.359 0 214.878 2.71689 219.06 8.16127C223.209 2.71689 228.707 0 235.563 0C241.304 0 246.218 2.02705 250.272 6.08116C254.326 10.1353 256.353 15.0384 256.353 20.7906V65.0567C256.353 66.2241 255.95 67.2111 255.154 68.0071C254.358 68.803 253.328 69.2488 252.161 69.2488H252.066C250.898 69.2488 249.911 68.8349 249.115 68.0071C248.287 67.2111 247.873 66.2241 247.873 65.0567V20.8012C247.873 17.3838 246.674 14.4865 244.276 12.088C241.877 9.68952 238.969 8.49027 235.563 8.49027C232.156 8.49027 229.29 9.68952 226.892 12.088C224.493 14.4865 223.294 17.3944 223.294 20.8012V65.0673C223.294 66.2347 222.88 67.2217 222.052 68.0177C221.256 68.8455 220.269 69.2594 219.102 69.2594H219.007C217.839 69.2594 216.842 68.8455 216.014 68.0177C215.186 67.2217 214.772 66.2347 214.772 65.0673V20.8012C214.772 17.3838 213.573 14.4865 211.174 12.088C208.776 9.68952 205.889 8.49027 202.504 8.49027C199.118 8.49027 196.231 9.68952 193.833 12.088C191.434 14.4865 190.235 17.3944 190.235 20.8012V65.0673Z" fill="url(#paint1_linear_6512_4712)"/>
<path d="M134.719 34.6299C134.719 42.3985 132.406 49.2968 127.821 55.1976C126.898 56.4074 125.879 57.5748 124.754 58.6998C123.809 59.6443 122.844 60.5146 121.846 61.3106C115.786 66.2031 108.665 68.6759 100.652 68.6759C91.2917 68.6759 83.2047 65.3222 76.5823 58.6998C69.9705 52.088 66.6168 43.9904 66.6168 34.6405C66.6168 25.2906 69.9705 17.193 76.5823 10.5812C83.2047 3.96938 91.3023 0.615723 100.652 0.615723C108.675 0.615723 115.786 3.08851 121.846 7.98103C122.844 8.76638 123.82 9.63664 124.754 10.5812C125.879 11.7061 126.898 12.8629 127.821 14.0622C132.406 19.9735 134.719 26.8825 134.719 34.6405V34.6299Z" fill="url(#paint2_linear_6512_4712)"/>
<path d="M60.3446 0H40.7958C40.5092 0 40.2227 0 39.9361 0.0212257C39.8194 0.0106128 39.6814 0 39.5647 0H20.0158C14.7518 0 10.2732 1.84663 6.59057 5.5399C2.89731 9.23317 1.06128 13.6799 1.06128 18.9121C1.06128 24.8234 3.32182 29.6523 7.84289 33.4411C2.61076 37.4421 0 42.7273 0 49.3073C0 54.8047 1.94215 59.5168 5.85829 63.4223C9.76381 67.3279 14.4759 69.27 20.0158 69.27H39.5647C39.6814 69.27 39.7981 69.2594 39.9255 69.2488C40.212 69.27 40.4986 69.27 40.7958 69.27H60.3446C62.032 69.27 63.3905 67.9116 63.3905 66.2241V3.0565C63.3905 1.36906 62.032 0 60.3446 0ZM54.8578 57.6489C54.8578 58.5086 54.5712 59.2515 53.9875 59.8564C53.372 60.4401 52.6291 60.7267 51.7694 60.7267H20.0264C16.8532 60.7267 14.1575 59.6335 11.9076 57.4048C9.68952 55.1655 8.57517 52.4593 8.57517 49.286C8.57517 46.1128 9.68952 43.4171 11.9076 41.1672C14.1469 38.9279 16.8532 37.8029 20.0264 37.8029H54.8684V57.6383L54.8578 57.6489ZM54.8578 29.3233L48.3203 29.3021H43.3216C43.3216 29.3021 43.311 29.2914 43.3004 29.2914H20.0264C17.1397 29.2808 14.6776 28.2938 12.6505 26.288C10.6235 24.261 9.59401 21.7988 9.59401 18.9121C9.59401 16.0254 10.6235 13.6163 12.6505 11.5786C14.6776 9.5091 17.1397 8.49027 20.0264 8.49027H51.7694C52.6291 8.49027 53.372 8.79804 53.9875 9.41359C54.5712 10.0291 54.8578 10.772 54.8578 11.6317V29.3339V29.3233Z" fill="url(#paint3_linear_6512_4712)"/>
<defs>
<linearGradient id="paint0_linear_6512_4712" x1="95.3457" y1="79.8616" x2="185.788" y2="-3.96921" gradientUnits="userSpaceOnUse">
<stop offset="0.17" stop-color="#1D1D1B"/>
<stop offset="0.53" stop-color="#2E2E2D"/>
<stop offset="0.75" stop-color="#3C3C3B"/>
</linearGradient>
<linearGradient id="paint1_linear_6512_4712" x1="208.967" y1="-35.4787" x2="227.359" y2="106.733" gradientUnits="userSpaceOnUse">
<stop offset="0.17" stop-color="white"/>
<stop offset="0.52" stop-color="#ECECEC"/>
<stop offset="1" stop-color="#CFCECE"/>
</linearGradient>
<linearGradient id="paint2_linear_6512_4712" x1="92.5122" y1="-28.3043" x2="110.193" y2="108.304" gradientUnits="userSpaceOnUse">
<stop stop-color="white"/>
<stop offset="0.43" stop-color="#ECECEC"/>
<stop offset="1" stop-color="#CFCECE"/>
</linearGradient>
<linearGradient id="paint3_linear_6512_4712" x1="26.6276" y1="-12.3533" x2="42.8228" y2="112.814" gradientUnits="userSpaceOnUse">
<stop stop-color="white"/>
<stop offset="0.43" stop-color="#ECECEC"/>
<stop offset="1" stop-color="#CFCECE"/>
</linearGradient>
</defs>
</svg>
