<svg width="670" height="181" viewBox="0 0 670 181" fill="none" xmlns="http://www.w3.org/2000/svg">
<path d="M440.011 26.4993C422.243 8.84233 400.899 0 375.925 0C356.05 0 338.449 5.5715 323.231 16.8254C325.643 18.7934 327.943 20.9001 330.216 23.1453C333.376 26.3052 336.259 29.6038 338.865 32.9855C349.73 25.7509 362.121 22.1474 375.925 22.1474C394.774 22.1474 410.906 28.7999 424.239 42.1327C437.544 55.4655 444.224 71.5702 444.224 90.4191C444.224 109.268 437.544 125.4 424.239 138.733C410.906 151.983 394.774 158.58 375.925 158.58C362.121 158.58 349.73 155.004 338.892 147.825C336.314 151.234 333.404 154.533 330.216 157.665C327.943 159.91 325.615 162.072 323.203 164.013C338.449 175.239 356.023 180.838 375.925 180.838C400.899 180.838 422.243 171.996 440.011 154.339C457.668 136.654 466.51 115.338 466.51 90.3636C466.51 65.3889 457.668 44.0731 440.011 26.4161V26.4993Z" fill="url(#paint0_linear_3_229)"/>
<path d="M496.862 169.945C496.862 172.994 495.781 175.571 493.618 177.65C491.456 179.812 488.879 180.894 485.913 180.894H485.552C482.586 180.894 480.008 179.812 477.846 177.65C475.684 175.571 474.603 172.994 474.603 169.945V54.329C474.603 39.3054 479.898 26.4993 490.514 15.9106C501.075 5.29431 513.881 0 528.905 0C546.811 0 561.225 7.09604 572.146 21.3158C582.984 7.09604 597.343 0 615.249 0C630.245 0 643.079 5.29431 653.667 15.8829C664.256 26.4715 669.55 39.2777 669.55 54.3013V169.917C669.55 172.966 668.497 175.544 666.418 177.623C664.339 179.702 661.65 180.866 658.601 180.866H658.352C655.303 180.866 652.725 179.785 650.646 177.623C648.484 175.544 647.403 172.966 647.403 169.917V54.329C647.403 45.4036 644.271 37.8363 638.006 31.5718C631.742 25.3074 624.147 22.1751 615.249 22.1751C606.351 22.1751 598.867 25.3074 592.603 31.5718C586.338 37.8363 583.206 45.4313 583.206 54.329V169.945C583.206 172.994 582.125 175.571 579.963 177.65C577.884 179.812 575.306 180.894 572.257 180.894H572.008C568.958 180.894 566.353 179.812 564.191 177.65C562.029 175.571 560.948 172.994 560.948 169.945V54.329C560.948 45.4036 557.815 37.8363 551.551 31.5718C545.286 25.3074 537.747 22.1751 528.905 22.1751C520.062 22.1751 512.523 25.3074 506.258 31.5718C499.994 37.8363 496.862 45.4313 496.862 54.329V169.945Z" fill="url(#paint1_linear_3_229)"/>
<path d="M351.865 90.4477C351.865 110.738 345.822 128.755 333.848 144.167C331.436 147.327 328.775 150.376 325.837 153.314C323.37 155.781 320.847 158.054 318.242 160.133C302.414 172.911 283.815 179.37 262.887 179.37C238.439 179.37 217.317 170.611 200.021 153.314C182.752 136.045 173.993 114.896 173.993 90.4754C173.993 66.0551 182.752 44.9056 200.021 27.6367C217.317 10.3678 238.467 1.60864 262.887 1.60864C283.843 1.60864 302.414 8.06715 318.242 20.8456C320.847 22.8968 323.398 25.1697 325.837 27.6367C328.775 30.5749 331.436 33.5963 333.848 36.7285C345.822 52.1679 351.865 70.2129 351.865 90.4754V90.4477Z" fill="url(#paint2_linear_3_229)"/>
<path d="M157.61 0H106.551C105.803 0 105.055 0 104.306 0.0554378C104.001 0.0277189 103.641 0 103.336 0H52.2778C38.5292 0 26.8319 4.82309 17.2134 14.4693C7.56724 24.1154 2.77189 35.7297 2.77189 49.3951C2.77189 64.8345 8.67597 77.4466 20.4842 87.3423C6.81881 97.7923 0 111.596 0 128.782C0 143.14 5.07253 155.448 15.3008 165.648C25.5014 175.849 37.8085 180.921 52.2778 180.921H103.336C103.641 180.921 103.946 180.894 104.278 180.866C105.027 180.921 105.775 180.921 106.551 180.921H157.61C162.017 180.921 165.565 177.373 165.565 172.966V7.98304C165.565 3.57574 162.017 0 157.61 0ZM143.279 150.569C143.279 152.814 142.531 154.755 141.006 156.335C139.398 157.859 137.458 158.608 135.213 158.608H52.3055C44.0176 158.608 36.9769 155.753 31.1005 149.932C25.3073 144.083 22.3968 137.015 22.3968 128.727C22.3968 120.439 25.3073 113.398 31.1005 107.522C36.9492 101.673 44.0176 98.7347 52.3055 98.7347H143.307V150.541L143.279 150.569ZM143.279 76.5873L126.204 76.5319H113.148C113.148 76.5319 113.121 76.5042 113.093 76.5042H52.3055C44.766 76.4765 38.3352 73.8986 33.0409 68.6597C27.7466 63.3654 25.0578 56.9346 25.0578 49.3951C25.0578 41.8555 27.7466 35.5634 33.0409 30.2413C38.3352 24.8361 44.766 22.1751 52.3055 22.1751H135.213C137.458 22.1751 139.398 22.979 141.006 24.5867C142.531 26.1944 143.279 28.1347 143.279 30.3799V76.615V76.5873Z" fill="url(#paint3_linear_3_229)"/>
<defs>
<linearGradient id="paint0_linear_3_229" x1="377.694" y1="-76.8696" x2="436.439" y2="282.584" gradientUnits="userSpaceOnUse">
<stop stop-color="white"/>
<stop offset="0.42" stop-color="#ECECEC"/>
<stop offset="1" stop-color="#CECDCE"/>
</linearGradient>
<linearGradient id="paint1_linear_3_229" x1="545.785" y1="-92.6643" x2="593.85" y2="278.769" gradientUnits="userSpaceOnUse">
<stop offset="0.17" stop-color="#F28A4F"/>
<stop offset="0.3" stop-color="#EF7746"/>
<stop offset="0.57" stop-color="#E94730"/>
<stop offset="0.75" stop-color="#E52520"/>
</linearGradient>
<linearGradient id="paint2_linear_3_229" x1="175.196" y1="-78.495" x2="307.136" y2="278.91" gradientUnits="userSpaceOnUse">
<stop offset="0.17" stop-color="#F28A4F"/>
<stop offset="0.3" stop-color="#EF7746"/>
<stop offset="0.57" stop-color="#E94730"/>
<stop offset="0.75" stop-color="#E52520"/>
</linearGradient>
<linearGradient id="paint3_linear_3_229" x1="69.5467" y1="-32.2648" x2="111.846" y2="294.652" gradientUnits="userSpaceOnUse">
<stop offset="0.17" stop-color="#F28A4F"/>
<stop offset="0.3" stop-color="#EF7746"/>
<stop offset="0.57" stop-color="#E94730"/>
<stop offset="0.75" stop-color="#E52520"/>
</linearGradient>
</defs>
</svg>
