<svg width="1051" height="406" viewBox="0 0 1051 406" fill="none" xmlns="http://www.w3.org/2000/svg">
<path d="M127.979 105.839C134.78 99.6577 134.624 97.6534 143.988 98.9017C142.608 100.389 141.991 99.9295 139.369 100.018C138.415 100.049 137.46 100.07 136.506 100.084L129.011 107.244C128.974 111.522 129.033 116.194 128.746 120.432C137.623 116.789 142.706 105.576 146.968 106.304C146.609 106.777 146.229 107.239 145.831 107.692C145.218 108.391 144.564 109.069 143.887 109.734C141.432 112.145 138.678 114.385 136.477 116.83C136.345 130.295 136.357 143.762 136.512 157.226C132.555 160.573 128.185 164.427 124.173 167.624C114.97 167.952 105.761 168.075 96.5537 167.991C92.8671 165.271 89.168 164.887 87.2354 166.614C87.1337 166.704 87.0369 166.801 86.9453 166.904C86.4871 167.416 86.1577 168.074 85.9893 168.873C85.9555 169.033 85.9278 169.199 85.9072 169.37C85.8251 170.055 85.8509 170.83 86 171.692C86.0373 171.907 86.0818 172.128 86.1348 172.355C86.1613 172.468 86.1902 172.583 86.2207 172.699C86.2512 172.814 86.2838 172.932 86.3184 173.05C86.6589 173.444 86.9887 173.79 87.3096 174.094C88.1651 174.904 88.9596 175.404 89.7412 175.644C90.0346 175.734 90.326 175.788 90.6182 175.807C92.3701 175.923 94.146 174.813 96.4902 173.039L117.426 173.014L117.82 173.618C117.95 173.82 118.078 174.024 118.204 174.229C118.457 174.639 118.703 175.054 118.942 175.475C119.421 176.316 119.873 177.178 120.303 178.056C120.518 178.495 120.727 178.939 120.931 179.386C121.44 180.504 121.917 181.645 122.366 182.803C122.636 183.498 122.896 184.199 123.147 184.906C126.331 193.852 128.153 203.581 131.274 211.324C131.849 212.75 132.469 214.109 133.148 215.383C133.246 215.565 133.344 215.746 133.443 215.924L133.181 217.778L135.222 218.664L134.705 217.39C135.849 218.52 135.882 219.193 136.306 220.733C135.568 222.776 136.16 221.956 134.501 223.309C128.551 223.491 106.505 207.446 101.91 202.412C88.9975 188.266 72.6212 173.389 64.9727 155.8L76.9365 155.595C81.7673 151.875 87.1056 146.821 91.6738 142.681C99.1144 142.584 107.273 142.253 114.578 143.312C118.126 147.541 123.287 153.527 129.193 150.781C133.885 145.399 132.935 139.918 127.712 135.541C127.965 125.603 127.493 115.787 127.979 105.839Z" fill="#004A8E"/>
<path d="M230.252 299.782C256.686 286.309 276.134 274.456 306.924 270.231C303.132 279.536 301.8 283.223 302.843 293.53C249.253 297.404 216.641 315.59 177.736 352.34C180.488 344.967 196.659 329.12 202.723 323.482C205.644 320.767 211.313 316.266 213.264 313.22C213.665 310.134 213.617 311.247 212.15 307.794L212.901 306.944C214.848 307.383 214.874 308.202 216.325 310.179C218.172 310.166 228.701 301.698 230.252 299.782Z" fill="#0872A7"/>
<path d="M142.386 159.284C142.4 153.233 141.272 133.048 143.306 129.111L146.096 128.399C149.042 129.649 149.543 129.811 151.708 132.131L151.739 133.455C149.779 134.915 149.655 135.348 148.88 137.666C147.322 137.441 148.073 137.696 146.77 136.468C144.112 141.194 148.547 209.454 148.528 220.321C143.864 220.131 140.958 219.874 136.306 220.733C135.882 219.193 135.849 218.52 134.705 217.39L135.221 218.664L133.181 217.778L133.443 215.924C133.261 207.031 124.73 185.981 125.498 176.146C125.867 171.41 138.048 162.831 142.386 159.284Z" fill="#004687"/>
<path d="M91.9222 38.6835C88.8967 31.9903 98.4367 26.556 103.849 24.9183C106.331 24.1682 106.878 25.0324 108.831 26.3032C109.514 25.3069 109.69 25.1081 110.536 24.2424C112.381 26.2462 113.665 27.8591 116.033 29.2724L117.379 28.772C123.611 33.8973 132.886 43.928 138.563 49.9205L138.618 68.2272C131.955 68.618 130.357 69.3689 125.37 64.5775C120.937 60.318 109.85 50.5364 106.964 45.5011C106.963 42.5139 107.287 39.1261 104.98 37.0188C100.823 33.2206 94.7977 33.844 91.9222 38.6835Z" fill="#004687"/>
<path d="M202.644 68.5963C203.887 67.3983 205.856 67.4043 207.091 68.6106C208.326 69.8169 208.379 71.7861 207.211 73.0569C206.423 73.9136 205.232 74.2737 204.102 73.9969C202.972 73.7208 202.082 72.8513 201.779 71.7276C201.475 70.6038 201.807 69.4042 202.644 68.5963Z" fill="#022F60"/>
<path d="M51.0771 75.7197C80.736 -3.10167 185.522 -13.6516 253.506 13.4434C279.1 23.6444 271.613 34.8011 255.747 50.2061C263.51 66.3049 273.449 86.2671 273.02 104.31C275.18 104.237 277.78 104.293 279.87 104.159C286.292 103.75 289.865 107.86 289.295 114.214C288.741 120.406 288.204 126.876 287.808 133.104C287.803 133.052 285.799 135.922 285.816 136.008C287.373 143.198 299.054 150.685 293.08 158.047C292.807 158.383 292.495 158.685 292.152 158.95C284.083 165.258 273.896 156.357 281.405 178.563C279.412 180.242 277.196 181.574 276.725 183.94C281.307 191.188 274.167 195.948 275.898 201.681C291.308 252.722 227.898 225.928 197.047 219.62C204.701 224.136 216.479 230.934 223.097 236.821C219.034 245.532 214.897 254.207 210.688 262.848C218.917 271.504 225.423 279.114 233.261 288.008C230.9 292.61 229.302 294.663 230.252 299.782C256.686 286.31 276.134 274.457 306.924 270.231C303.132 279.536 301.8 283.223 302.843 293.53C249.253 297.404 216.641 315.591 177.735 352.341L172.845 358.591C165.26 348.496 156.561 339.29 146.911 331.146C112.567 302.111 74.0688 288.302 29.2676 292.128C29.5848 282.415 28.3799 279.143 23.9482 270.423C52.884 260.06 58.3081 255.923 69.3818 227.416C119.72 251.774 150.765 279.55 186.435 322.998C192.3 307.151 199.302 289.006 203.9 272.96C166.562 253.562 124.666 234.191 88.1895 213.881C88.9604 207.553 89.3111 200.395 89.7461 193.969C79.8153 185.306 63.6221 169.42 58.5078 157.17L59.7363 155.863L64.9727 155.8L76.9365 155.595C81.7671 151.875 87.1047 146.822 91.6729 142.682C99.1136 142.585 107.273 142.253 114.578 143.313C118.126 147.541 123.287 153.527 129.193 150.78C133.885 145.398 132.935 139.918 127.712 135.541C127.965 125.603 127.493 115.787 127.979 105.839C134.78 99.6576 134.624 97.6541 143.988 98.9024C146.404 97.2476 147.714 96.6478 148.812 93.8711C148.466 84.2005 154.412 81.5746 161.086 75.249C161.138 61.2289 161.106 47.2086 160.988 33.1885C177.209 23.3949 158.61 12.3411 150.477 21.5488C148.879 26.7624 152.007 30.1242 155.988 33.2022L155.859 73.3897C152.233 76.5292 148.12 80.7086 144.609 84.0889L143.766 48.7031C140.11 42.2583 125.325 29.3617 119.174 22.1914C116.65 22.5109 113.883 22.5189 111.322 22.5977C113.543 24.5421 115.379 26.609 117.379 28.7725C123.611 33.8978 132.887 43.9285 138.563 49.9209L138.618 68.2276C131.955 68.6184 130.357 69.3686 125.37 64.5772C120.937 60.3175 109.85 50.5362 106.964 45.501C106.962 42.5138 107.287 39.1258 104.98 37.0186C100.823 33.2206 94.7973 33.8443 91.9219 38.6836L90.793 40.3613C79.5933 40.5406 69.2245 51.7044 64.5527 61.0059C64.285 61.5392 64.1308 61.5966 63.6523 62.0752C62.196 64.3031 61.6938 64.7046 61.4883 67.2461L61.9531 67.9151L66.8301 68.6514C64.8104 68.9042 62.3981 68.8765 61.0361 70.2178L61.3145 71.1865C63.4847 70.975 64.8486 70.7942 66.9814 70.3486L67.3154 70.7637C65.4581 71.4194 52.1826 75.6387 51.0771 75.7197ZM49.4971 263.15C46.8646 264.808 43.9399 266.528 41.5137 268.434C57.7294 271.363 74.8058 278 89.583 285.244C91.732 286.338 104.627 293.57 105.881 293.468C100.668 289.652 96.9322 287.019 91.3867 283.715C75.7831 274.537 66.1987 270.182 49.4971 263.15ZM187.801 48.6358C197.122 42.2742 195.456 32.7776 184.888 33.2832C173.321 33.8369 175.798 42.9779 182.384 48.3252C180.793 58.5299 179.049 68.7113 177.152 78.8643C167.232 87.9692 157.068 97.4488 146.968 106.305C144.05 110.152 139.679 113.274 136.477 116.831C136.345 130.296 136.357 143.762 136.512 157.226C132.555 160.573 128.185 164.427 124.173 167.624C114.97 167.952 105.761 168.074 96.5537 167.99C90.3452 163.41 84.1014 165.454 86.3184 173.051C89.9504 177.246 92.3228 176.193 96.4902 173.04L117.426 173.015C125.962 185.786 127.067 204.499 133.443 215.924C133.261 207.03 124.73 185.981 125.497 176.146C125.867 171.411 138.048 162.83 142.386 159.284C142.399 153.232 141.272 133.048 143.307 129.11L146.096 128.399C151.233 128.926 152.127 130.673 156.395 134.015C157.06 149.27 157.909 164.518 158.939 179.753C158.577 180.004 158.219 180.261 157.864 180.522C155.533 182.246 152.293 185.942 152.557 188.683C153.849 202.104 181.078 193.724 163.515 180.002C163.572 166.364 161.722 147.893 160.997 133.648C166.837 129.657 171.091 124.121 162.447 118.331C157.481 115.004 148.102 125.756 142.997 123.681C142.53 122.55 142.275 118.982 142.833 118.385C154.932 105.488 168.631 93.5215 181.738 81.5772C183.712 73.9328 186.073 56.974 187.08 49.1211L187.801 48.6358ZM202.363 62.7891C195.976 68.1243 194.093 71.9112 201.006 78.5254L198.147 86.6533C195.498 88.9504 176.524 104.932 176.455 108.405C176.188 121.788 189.197 113.447 193.818 113.496C215.342 113.724 237.157 113.066 258.638 113.782C258.57 120.126 258.499 126.475 258.389 132.818C258.299 137.911 258.94 142.298 265.017 142.488C271.778 139.594 270.617 128.464 270.771 121.941C270.986 119.188 270.555 118.727 272.074 116.831C275.826 117.883 279.441 125.117 281.685 128.753C281.973 123.579 282.474 117.474 282.496 112.366C279.295 112.128 275.276 111.934 272.18 111.417C268.673 106.16 273.277 101.75 261.898 105.29C257.935 106.523 243.783 106.846 239.47 106.368C228.346 105.136 197.079 108.525 188.805 105.049L187.709 103.693C189.031 99.6177 199.121 91.9974 202.745 88.9688C203.512 85.6425 203.982 82.3122 205.926 79.5508C210.05 77.2853 215.801 74.0783 212.384 67.8594C210.243 63.9637 206.66 62.7276 202.363 62.7891Z" fill="#022F60"/>
<path d="M563.542 73.5561C569.364 72.4218 570.804 82.4719 572.551 87.2739L581.754 112.562L614.139 201.768C618.429 213.534 622.142 227.47 628.457 238.225C630.722 242.08 634.352 245.49 638.176 247.771C643.396 250.881 648.864 251.663 654.714 250.074C658.704 248.99 663.841 246.722 665.776 242.813C667.546 239.247 667.516 233.432 667.704 229.474C668.439 214.047 669.279 102.347 666.841 94.5785C663.197 82.9262 656.319 87.7941 649.509 83.6205C648.039 82.7181 648.114 82.0232 647.761 80.5102C648.601 78.0113 648.076 78.2059 649.801 77.2006L704.356 77.0912C728.626 77.059 756.264 75.0912 776.799 90.2621C798.684 106.33 799.584 142.46 783.729 162.971C770.589 179.979 747.557 186.426 726.752 186.21C720.872 186.149 711.909 186.342 711.271 178.564C713.934 175.436 729.077 175.442 734.934 172.81C750.167 166.283 755.476 148.681 755.476 133.371C755.484 114.57 751.434 99.613 732.789 92.2162C723.834 89.1646 715.036 89.8298 705.632 89.8471L705.624 181.79C705.616 198.285 705.452 216.011 705.849 232.419C706.389 255.097 724.329 246.103 729.114 254.014C728.994 256.295 729.354 255.298 728.034 257.123C718.831 258.093 700.539 257.162 690.391 257.09L625.337 257.141L589.419 257.219C583.974 257.269 573.233 257.771 568.441 256.905C567.391 255.362 567.632 254.097 567.632 252.189C569.109 250.082 575.364 249.924 577.989 249.027C594.579 243.361 577.367 208.974 572.904 196.23C554.704 195.682 535.145 196.003 516.84 196.052C512.698 207.513 502.824 230.237 503.401 241.76C503.893 251.59 516.534 248.532 521.107 252.003C522.295 253.877 523.051 255.926 521.219 257.564C514.036 257.493 462.897 257.368 461.796 256.688C460.384 249.107 471.47 249.083 476.05 244.846C483.931 237.858 486.408 227.739 490.26 218.454C509.601 171.83 526.082 122.663 546.625 76.6459C551.425 76.0368 558.607 74.4826 563.542 73.5561ZM521.54 182.626C528.957 182.789 536.378 182.857 543.797 182.83L568.209 182.725C565.694 175.395 547.821 121.46 545.468 118.941L521.54 182.626Z" fill="#022F60"/>
<path d="M969.099 72.8906C989.536 125.758 1007.48 179.912 1027.76 232.86C1029.46 237.301 1033.32 242.236 1036.66 245.592C1041.12 250.015 1050.39 248.834 1051.01 255.398L1049.87 257.194C1030.33 258.467 992.086 256.146 970.629 257.463C970.261 257.2 969.894 256.937 969.534 256.674C968.957 253.725 968.784 254.855 970.014 252.353C974.806 248.83 988.104 248.033 988.081 240.478C988.036 228.103 978.332 208.151 975.047 196.143C956.319 195.96 937.599 195.966 918.879 196.164C915.954 204.213 912.736 213.78 909.706 221.62C895.951 257.269 915.204 245.433 923.206 251.647C923.731 254.247 923.836 254.64 923.304 257.222C923.634 257.09 865.613 257.725 863.273 257.476C864.533 256.094 864.931 252.097 865.276 250.062C879.729 247.986 884.687 237.011 889.547 224.702C893.754 214.059 897.849 203.35 902.034 192.703L932.109 116.632C937.089 104.152 942.842 88.7791 948.369 76.708C955.261 75.336 962.169 74.0631 969.099 72.8906ZM947.611 118.89C939.384 140.042 931.411 161.289 923.687 182.629C931.532 182.758 939.377 182.825 947.229 182.83L970.329 182.812C967.944 175.62 950.304 121.581 947.611 118.89Z" fill="#0872A7"/>
<path d="M391.784 73.6458C414.425 71.1972 433.812 76.3975 455.216 82.2474C454.199 95.6659 453.868 108.876 454.308 122.236C454.496 127.916 451.518 128.759 446.792 127.71C445.711 127.47 442.985 112.788 442.09 110.918C439.985 106.523 437.615 103.157 434.316 99.8017C425.724 91.0006 413.91 86.0914 401.612 86.2114C386.09 86.2414 370.304 95.3959 371.05 112.304C372.08 135.66 408.068 143.999 424.865 153.615C434.131 158.919 442.655 162.526 450.371 170.239C470.438 188.133 469.007 223.918 450.511 242.566C435.46 257.742 416.048 261.45 395.518 261.768C375.71 261.899 354.601 256.935 335.6 251.38C338.36 232.533 337.082 218.629 337.172 199.786C339.939 199.715 343.2 199.835 346.01 199.875C349.808 230.242 369.501 249.45 401.194 247.89C417.947 247.066 431.999 232.439 429.146 215.962C424.187 187.328 375.432 180.884 356.194 163.374C345.997 154.092 338.941 146.178 337.325 131.84C333.285 94.6667 358.193 77.4793 391.784 73.6458Z" fill="#022F60"/>
<path d="M171.816 373.359C201.347 346.025 292.217 309.973 329.921 326.342C329.402 327.313 328.876 328.258 328.343 329.181C322.609 328.294 316.543 327.603 310.832 327.713L314.799 328.534L314.869 328.863L314.799 328.535L310.832 327.714C270.619 327.466 234.209 337.365 201.657 361.443C198.436 363.825 184.827 373.14 183.545 376.028C188.859 373.142 193.976 368.904 199.102 365.594C231.67 344.561 275.128 329.437 314.253 329.876V329.875C319.26 329.977 323.348 329.848 328.094 329.606C324.306 336.091 320.145 341.521 315.37 347.61C308.572 355.824 303.541 361.165 295.506 368.113C249.143 367.575 209.279 377.121 171.663 405.387C128.39 375.81 87.6023 367.409 36.1035 368.266C24.2829 359.327 6.69319 340.058 0 326.846C2.7741 325.215 5.91742 323.907 8.86328 322.584C67.295 321.054 124.59 338.907 171.816 373.359ZM134.134 357.571C96.9294 334.463 57.2133 326.658 13.9385 328.49H13.9375L13.9385 328.489C10.925 328.693 7.33511 328.728 4.56836 329.791V329.792C9.26191 330.809 20.596 330.54 25.9404 330.428C69.2468 331.278 113.612 347.003 149.718 370.147C151.438 371.25 154.362 373.287 156.145 373.775C154.657 370.992 137.786 359.839 134.134 357.571Z" fill="#022F60"/>
<path d="M863.274 257.476C854.709 257.128 799.179 257.663 796.892 256.491L796.314 254.502C799.809 246.819 815.049 251.923 815.597 235.654C815.867 227.887 815.874 218.314 815.882 210.422L815.897 161.251L815.882 120.649C815.889 113.486 816.174 105.547 815.499 98.4348C814.149 84.1888 800.417 85.921 796.824 83.1753C796.037 80.5279 796.052 79.1003 798.332 77.4882C805.209 76.837 870.534 77.1468 872.484 77.87L873.114 79.3126C871.562 86.9157 853.982 85.005 854.094 98.6073C854.484 145.945 852.122 194.124 855.077 241.276C855.339 245.43 861.939 248.481 865.277 250.063C864.932 252.097 864.534 256.094 863.274 257.476Z" fill="#022F60"/>
<path d="M61.9525 67.9147C67.5436 67.5913 72.2501 67.632 77.8217 67.7115C85.5571 75.2613 93.3786 82.7235 101.284 90.0963C108.368 90.1901 127.822 88.8788 132.603 91.3004C134.925 94.989 130.916 97.4687 128.168 99.7125L106.795 99.649C102.736 103.351 98.5651 107.062 94.6869 110.945C78.9018 110.968 61.0862 110.607 45.4623 111.299C45.439 97.5291 46.4613 88.8492 51.0775 75.7203C52.1859 75.6383 65.459 71.4189 67.3158 70.7633L66.9809 70.3483C64.8479 70.7939 63.4844 70.9756 61.3139 71.1871L61.0355 70.2174C62.3975 68.8761 64.8107 68.9048 66.8305 68.652L61.9525 67.9147ZM64.9857 83.5074C63.1289 85.8267 62.4054 86.4864 61.8197 89.4967C62.1482 90.5087 62.6047 92.214 63.6449 92.316C73.2989 93.262 75.6565 100.257 82.9652 105.063L86.2797 103.005C76.8892 97.4503 75.1255 93.6202 70.765 84.6481C70.3501 83.7937 66.2465 83.5262 64.9857 83.5074Z" fill="#004687"/>
<path d="M63.6526 62.075C64.1311 61.5964 64.2848 61.5394 64.5526 61.006C69.2243 51.7045 79.5931 40.541 90.7928 40.3617C90.9316 48.778 93.8814 49.7045 101.032 50.1051C104.499 50.2994 123.887 70.1282 127.574 73.3698L138.699 73.3525C138.753 76.438 139.106 80.9534 138.141 83.7103C133.892 86.3427 110.362 85.2849 103.928 84.9803C95.3648 78.2234 87.3623 68.3105 79.6831 62.5754C74.3431 62.3053 68.9993 62.1388 63.6526 62.075Z" fill="#004687"/>
<path d="M300.188 296.476C305.282 296.108 310.826 297.101 315.849 297.963C311.085 305.074 311.354 308.6 316.127 315.365C279.811 310.555 244.25 320.043 211.775 336.017L194.362 345.657C221.355 319.664 262.658 299.5 300.188 296.476Z" fill="#022F60"/>
<path d="M29.7218 295.724C30.3053 295.675 30.8903 295.642 31.4753 295.623C68.7165 294.773 121.429 318.439 147.986 344.016L133.716 335.756C93.3075 314.411 62.0565 308.897 17.3416 314.773C22.1461 307.888 21.4845 304.233 18.5258 296.994C22.0298 296.438 26.1443 296.101 29.7218 295.724Z" fill="#022F60"/>
<path d="M108.728 104.788L123.268 104.655C123.434 111.344 122.834 120.436 122.575 127.288C112.63 127.447 75.0765 129.051 68.5222 126.813C66.8437 126.24 64.914 125.448 63.1477 125.236C61.083 124.988 59.709 125.745 58.0762 126.908C55.8967 131.348 58.7085 133.663 62.1157 136.023C59.343 140.508 62.844 144.528 61.2075 149.793L60.099 150.65C59.9145 152.511 59.7907 153.996 59.7367 155.864L58.5082 157.17C50.4502 144.352 47.823 130.661 45.3037 116.049C61.7182 116.513 80.2267 116.055 96.804 116.024C100.817 112.32 104.792 108.574 108.728 104.788Z" fill="#02437E"/>
<path d="M390.315 282.819C449.727 282.728 1040.22 281.059 1046.07 283.807C1007.79 284.528 968.409 284.116 930.062 284.158L721.689 284.306L468.271 284.203C426.452 284.155 383.606 284.566 341.863 284.009C338.561 284.363 334.037 284.329 330.757 283.704C336.304 282.171 382.242 282.57 390.315 282.819Z" fill="#454343"/>
<path d="M341.863 284.009C338.561 284.363 334.037 284.329 330.757 283.704C336.304 282.171 382.242 282.57 390.315 282.819C383.278 284.679 351.853 283.445 341.863 284.009Z" fill="#8B8989"/>
<path d="M651.519 314.245C660.541 314.821 662.551 318.026 663.796 326.929C665.424 338.65 654.812 339.693 646.202 340.465C645.137 343.157 645.414 347.328 645.414 350.372L645.182 352.887L643.741 354.028C641.416 353.96 642.466 354.316 640.561 352.724C638.859 349.3 639.886 320.789 640.336 315.716C642.054 314.614 645.294 316.119 647.357 316.093C647.357 316.093 651.219 314.378 651.519 314.245Z" fill="#55565A"/>
<path d="M648.399 318.48C660.564 317.693 659.574 329.845 654.077 336.975C650.994 337.741 649.434 337.978 646.839 336.157C643.877 330.776 644.177 322.986 648.399 318.48Z" fill="white"/>
<path d="M554.155 300.695C556.394 300.712 557.044 300.788 559.235 301.249C559.308 301.675 559.371 302.102 559.423 302.53C559.99 306.944 560.455 337.829 558.632 340.194C556.042 340.522 556.878 340.432 554.08 338.709C550.992 338.506 548.833 341.148 542.668 340.379C530.586 332.429 534.558 310.908 554.079 315.305L554.155 300.695Z" fill="#55565A"/>
<path d="M546.383 317.76C553.133 317.124 555.249 319.883 554.932 327.111C554.705 332.286 553.925 334.206 549.961 337.292L549.221 337.175C538.679 335.578 540.279 323.575 546.383 317.76Z" fill="white"/>
<path d="M62.1159 136.023C74.6799 129.639 109.343 131.674 124.686 132.834L116.843 137.786C108.041 137.766 98.7773 137.6 90.0151 137.84C84.4006 142.088 80.3131 146.624 75.4786 150.338C70.9374 150.282 65.6491 150.365 61.2076 149.793C62.8441 144.528 59.3431 140.508 62.1159 136.023Z" fill="#014585"/>
<path d="M821.627 303.59C828.909 303.452 838.344 302.193 844.104 307.3C848.687 311.366 847.029 316.5 843.422 320.479C839.199 325.132 835.712 325.121 829.967 325.415L828.587 325.394C827.634 326.903 828.107 335.415 827.604 339.051C826.292 340.915 827.132 340.256 824.987 341.079L823.824 340.203C821.177 335.043 821.979 311.341 821.627 303.59Z" fill="#55565A"/>
<path d="M828.054 307.335C838.164 307.018 843.647 311.096 837.362 320.749C833.897 321.987 831.436 323.176 828.504 320.692C827.116 317.471 827.874 311.104 828.054 307.335Z" fill="white"/>
<path d="M878.281 314.328C895.906 313.218 899.251 333.695 884.184 340.694C864.796 341.196 861.856 319.981 878.281 314.328Z" fill="#55565A"/>
<path d="M879.497 317.016C890.454 318.953 889.734 332.025 882.789 338.142C870.917 336.473 871.389 322.213 879.497 317.016Z" fill="white"/>
<path d="M786.676 314.22C793.126 314.01 797.889 315.307 800.904 321.6C802.554 325.091 802.689 329.111 801.264 332.701C799.329 337.469 797.184 338.809 792.766 340.619C773.956 341.451 770.446 320.706 786.676 314.22Z" fill="#55565A"/>
<path d="M788.912 317.07C799.344 319.595 798.159 332.553 790.914 338.223C779.282 335.674 779.934 320.934 788.912 317.07Z" fill="white"/>
<path d="M991.584 314.576C998.694 313.339 1005.47 318.079 1006.74 325.186C1008.02 332.292 1003.31 339.094 996.219 340.407C989.064 341.73 982.202 336.982 980.919 329.822C979.637 322.662 984.414 315.824 991.584 314.576Z" fill="#55565A"/>
<path d="M991.779 317.202C1003.94 318.172 1002.98 332.144 995.432 338.18C984.137 336.585 984.639 323.255 991.779 317.202Z" fill="white"/>
<path d="M676.299 314.335C694.374 312.906 698.281 333.621 682.719 340.811C676.381 340.927 671.484 339.962 668.184 333.749C666.481 330.57 666.152 326.834 667.277 323.407C668.934 318.307 671.904 316.449 676.299 314.335Z" fill="#55565A"/>
<path d="M677.574 317.176C689.154 317.578 688.569 332.04 681.429 338.104C670.081 336.87 670.389 323.401 677.574 317.176Z" fill="white"/>
<path d="M719.349 314.287C736.982 313.838 739.644 334.07 724.359 340.692C704.919 340.963 703.209 319.188 719.349 314.287Z" fill="#55565A"/>
<path d="M719.627 317.128C731.267 318.597 730.472 331.878 723.287 338.097C711.669 336.725 711.864 322.872 719.627 317.128Z" fill="white"/>
<path d="M712.336 371.291C714.849 371.131 724.861 371.048 726.136 373.012C721.111 379.063 726.009 377.159 722.956 383.259C721.021 387.117 711.609 387.868 706.809 389.077C716.649 392.502 727.156 387.382 726.684 400.73C722.514 405.009 715.869 406.801 710.026 405.371C700.194 402.966 711.796 388.637 708.151 382.931C704.341 376.974 707.214 374.36 712.336 371.291Z" fill="#55565A"/>
<path d="M710.237 395.322C715.007 395.043 718.794 394.118 722.319 396.985C722.679 399.93 722.807 398.729 721.082 401.849C717.032 403.159 712.997 403.619 709.764 400.537C709.097 397.42 709.112 398.714 710.237 395.322Z" fill="white"/>
<path d="M712.111 374.042C713.701 373.932 714.931 374.087 716.506 374.224C721.066 377.325 720.437 379.635 718.217 384.366C716.469 384.588 715.719 384.451 714.016 384.285C709.591 381.273 710.251 378.798 712.111 374.042Z" fill="white"/>
<path d="M616.884 303.573L621.257 303.736C623.619 305.223 634.307 334.29 636.099 339.364C634.427 340.992 635.117 340.482 632.694 341.121C627.504 339.482 628.321 331.536 624.594 329.157L611.371 329.228C610.036 332.773 608.806 336.339 606.969 339.647C604.546 339.742 605.221 340.064 603.511 338.917C604.284 334.879 614.544 310.359 616.884 303.573Z" fill="#55565A"/>
<path d="M618.354 310.212C620.169 311.767 624.182 322.353 623.784 325.22L621.812 325.546C618.384 325.683 615.932 326.547 613.847 323.644C613.637 320.811 617.064 313.632 618.354 310.212Z" fill="white"/>
<path d="M465.105 314.156C469.179 314.102 475.357 317.189 475.711 317.043C479.681 315.413 486.053 310.618 489.362 316.619C491.986 321.377 492.444 334.615 490.972 339.752C488.971 340.613 489.724 340.391 487.384 340.146C483.06 335.373 488.423 326.433 484.852 319.92C483.25 318.686 482.858 318.3 480.64 318.389C473.335 318.682 475.348 329.479 475.399 335.368L475.328 338.25C473.854 340.311 474.513 339.635 471.98 340.73C467.683 338.122 472.261 327.099 469.01 320.072C467.198 318.812 466.441 318.115 463.8 318.573C454.927 320.109 462.988 333.185 458.428 339.399C456.176 340.325 457.262 340.3 455.073 339.691C453.746 337.078 453.448 318.163 455.157 316.06C460.665 316.112 460.35 317.113 465.105 314.156Z" fill="#55565A"/>
<path d="M494.22 359.399C496.035 359.608 496.204 359.524 497.884 360.369C499.299 363.953 499.083 390.306 498.326 393.419C494.602 394.415 494.593 391.738 493.678 392.077C489.752 393.531 488.518 394.032 484.172 393.693C479.158 389.689 477.592 385.25 478.902 378.919C481.262 367.507 491.422 373.313 493.988 371.038C494.295 367.128 494.232 363.315 494.22 359.399Z" fill="#55565A"/>
<path d="M487.168 373.97C490.722 374.324 490.346 373.775 492.934 375.64C496.108 381.415 495.233 386.742 490.313 391.018C480.953 389.914 482.379 379.715 487.168 373.97Z" fill="white"/>
<path d="M373.517 359.416C375.236 359.614 376.016 359.511 377.276 360.679C378.598 364.647 377.959 369.397 377.926 373.853C391.123 365.759 396.374 378.609 390.952 390.108C384.704 395.703 380.857 393.747 373.478 392.042C373.333 381.167 373.346 370.291 373.517 359.416Z" fill="#55565A"/>
<path d="M379.687 374.804C391.067 373.68 389.63 383.702 385.358 390.642C381.902 391.206 381.973 391.319 379.415 390.057C376.754 385.985 376.877 378.626 379.687 374.804Z" fill="white"/>
<path d="M511.31 371.253C526.568 370.688 529.375 386.291 517.578 393.689C500.877 394.746 498.342 377.595 511.31 371.253Z" fill="#55565A"/>
<path d="M511.337 374.127C522.21 373.708 521.43 385.09 516.647 391.234C505.831 391.896 506.89 380.573 511.337 374.127Z" fill="white"/>
<path d="M357.795 303.058C361.007 302.889 367.26 302.966 369.273 305.659L368.831 308.21C366.63 310.277 357.653 303.023 353.879 310.443C355.463 317.833 369.602 320.66 371.892 329.365C373.703 336.247 365.594 339.83 360.201 341.137C356.533 341.069 350.94 340.576 348.709 337.409C348.707 334.94 348.386 336.052 349.734 333.961C355.28 336.855 360.296 339.429 365.206 333.929C367.04 325.053 349.689 322.575 347.952 313.503C346.791 307.44 353.064 304.488 357.795 303.058Z" fill="#55565A"/>
<path d="M850.322 361.812L853.719 362.154C855.962 364.034 865.494 389.103 866.552 392.796L865.344 393.457C856.832 392.782 862.112 388.281 856.952 384.255L845.672 384.294C844.757 386.888 843.527 389.78 842.484 392.365C840.279 393.45 841.104 393.452 839.169 392.849C838.787 391.092 848.822 366.402 850.322 361.812Z" fill="#55565A"/>
<path d="M851.447 368.652C853.494 370.207 856.292 377.829 855.984 380.565L854.304 381.15C851.409 381.092 850.554 381.536 848.297 380.178C847.299 376.362 849.722 372.665 851.447 368.652Z" fill="white"/>
<path d="M504.784 314.299C525.137 313.374 509.51 329.759 518.678 339.127C514.152 343.855 513.007 336.4 507.038 339.73C504.655 341.06 502.44 340.866 499.811 340.597C487.507 329.073 508.229 326.939 511.405 321.965L511.001 320.656C506.513 317 505.041 318.413 498.858 319.036L498.361 318.17C500.324 315.805 501.974 315.409 504.784 314.299Z" fill="#55565A"/>
<path d="M509.834 327.764C514.541 332.748 509.172 336.839 503.321 337.223C501.905 334.193 501.779 333.919 502.696 331.228C504.661 329.217 507.104 328.705 509.834 327.764Z" fill="white"/>
<path d="M435.669 314.248C442.238 313.971 450.377 318.196 449.813 325.217C445.222 330.085 437.002 325.87 432.878 328.768C431.667 334.505 438.537 338.674 444.011 336.19C445.369 335.442 445.8 335.049 447.362 335.085L448.007 336.245C446.18 340.291 439.934 341.845 436.175 340.556C422.53 335.88 424.637 320.299 435.669 314.248Z" fill="#55565A"/>
<path d="M436.462 317.022C438.2 317.113 438.704 317.312 440.324 317.783C442.844 320.139 444.191 321.115 442.999 324.459L441.062 325.001C437.709 325.119 434.225 326.078 432.878 322.618C433.664 319.851 434.566 319.166 436.462 317.022Z" fill="white"/>
<path d="M572.252 371.208C573.819 371.105 576.189 371.014 577.464 372.039C582.894 376.414 587.439 368.628 592.569 372.066C595.262 376.723 594.939 387.405 594.227 392.663L592.509 393.638C586.944 390.708 592.487 375.201 585.699 373.604C579.347 375.651 581.004 383.332 581.124 388.631C581.117 389.648 580.914 391.11 580.809 392.162C578.889 393.835 579.962 393.395 577.562 393.679C575.199 390.257 578.882 379.823 572.882 374.276C566.484 373.666 567.579 388.855 567.204 392.904L565.928 393.69L564.473 393.137C561.627 388.684 562.457 377.974 563.111 372.825C566.972 370.697 565.655 374.91 572.252 371.208Z" fill="#55565A"/>
<path d="M575.364 314.182C578.207 314.189 582.534 314.493 584.244 316.965C595.022 332.563 575.364 325.703 571.367 329.108L571.262 330.95C572.612 333.696 572.807 334.159 575.034 336.229C578.942 337.718 581.619 336.609 585.279 335.147L585.512 335.038L586.232 335.435L586.029 337.244C573.437 352.087 552.165 322.377 575.364 314.182Z" fill="#55565A"/>
<path d="M575.049 316.881C579.062 317.363 583.262 320.2 581.687 324.571L579.812 325.012C577.577 325.04 575.694 324.967 573.467 324.845C571.314 323.528 571.907 324.425 571.299 322.301C572.102 319.683 573.197 318.818 575.049 316.881Z" fill="white"/>
<path d="M760.884 314.263C774.219 313.926 770.927 323.369 770.342 332.417C770.139 335.586 771.819 337.185 773.837 339.25L772.149 340.557C768.579 340.929 766.517 338.175 765.369 338.492C759.249 340.182 761.312 341.796 754.352 340.181C752.034 337.79 751.157 336.038 751.052 332.74C753.032 327.034 759.459 328.138 764.942 323.907C766.119 321.529 765.969 322.598 765.392 319.854C760.622 316.031 757.149 320.385 753.437 318.764L754.037 317.052C755.987 315.133 758.147 314.936 760.884 314.263Z" fill="#55565A"/>
<path d="M764.761 327.744C765.541 328.491 765.871 329.429 766.014 330.513C766.764 336.134 762.894 336.626 758.829 337.362C757.351 334.866 757.029 334.053 757.816 331.284C759.819 329.089 761.896 328.713 764.761 327.744Z" fill="white"/>
<path d="M922.239 314.278C928.696 314.273 935.836 317.984 935.769 325.096C932.379 329.611 924.331 325.788 919.569 329.067C917.881 335.22 924.301 338.457 930.031 336.388C932.229 335.223 931.809 334.986 933.789 335.272L934.127 336.53C931.652 340.601 925.404 341.932 921.391 340.215C908.949 334.886 910.704 319.161 922.239 314.278Z" fill="#55565A"/>
<path d="M922.959 316.83C926.904 317.259 929.769 319.365 929.949 323.612C928.869 325.22 929.447 324.713 927.002 325.214C923.004 325.298 921.947 325.763 919.134 323.687L918.894 321.911C920.109 319.238 920.822 318.758 922.959 316.83Z" fill="white"/>
<path d="M463.348 371.265C477.766 370.588 472.739 379.321 473.54 389.429C473.54 389.432 475.323 392.436 475.48 392.701L474.671 393.745C471.251 394.203 472.186 393.579 468.34 391.985C464.559 393.67 464.035 393.881 459.917 393.936C457.7 392.1 456.723 390.315 456.431 387.504C457.994 382.203 463.917 383.208 468.631 378.947C469.187 376.606 469.334 377.697 468.131 375.572C465.497 374.675 461.572 375.151 458.627 375.298L458.579 374.294C459.91 372.675 461.437 372.179 463.348 371.265Z" fill="#55565A"/>
<path d="M466.454 382.766L467.681 383.054C470.932 386.712 468.018 389.555 464.993 391.765C462.611 389.878 462.413 389.799 461.725 387.275C462.637 384.701 464.058 384.233 466.454 382.766Z" fill="white"/>
<path d="M441.343 382.43L440.766 383.248C439.836 390.323 447.639 392.604 452.279 388.916L453.362 389.059L453.979 390.167C451.39 394.493 442.725 394.729 439.189 392.219C425.225 382.304 450.854 356.743 454.078 380.314L453.8 382.269C451.358 383.625 444.31 382.678 441.343 382.43Z" fill="#55565A"/>
<path d="M445.296 380.735C441.834 380.302 442.381 380.945 440.737 378.939C441.198 374.698 443.48 373.922 447.234 374.532C449.57 376.397 449.84 378.232 449.94 381.148L445.296 380.735Z" fill="white"/>
<path d="M454.079 380.314L453.8 382.269C451.358 383.625 444.31 382.678 441.343 382.43L440.695 382.228L440.437 381.491L445.296 380.735L449.94 381.148C451.432 381.396 452.765 380.852 454.079 380.314Z" fill="#454343"/>
<path d="M402.673 371.195C421.329 370.868 406.893 384.405 414.783 392.517L413.795 393.556C410.407 394.162 411.242 393.198 407.37 392.009C403.196 393.789 402.611 394.049 398.137 393.573C390.128 384.214 404.213 382.341 408.765 377.503C407.78 373.598 401.212 375.041 398.319 375.511L397.538 374.866C398.967 372.488 400.094 372.313 402.673 371.195Z" fill="#55565A"/>
<path d="M405.485 382.856C406.88 382.912 406.805 383.018 407.939 383.883C409.218 388.71 407.299 389.966 403.235 391.563C400.879 388.907 401.209 389.966 400.715 387.067C401.769 384.676 403.182 384.208 405.485 382.856Z" fill="white"/>
<path d="M977.117 371.256C994.052 370.202 983.889 382.31 989.492 392.646L988.614 393.55C985.524 394.123 986.184 393.511 982.764 392.031C978.699 393.633 978.122 393.838 973.779 393.859C971.589 391.76 971.027 390.803 970.802 387.9C973.134 381.594 978.114 382.951 983.364 378.177L983.424 376.832C980.162 373.531 977.649 374.834 973.337 375.549L972.624 374.892C973.607 372.893 975.114 372.381 977.117 371.256Z" fill="#55565A"/>
<path d="M981.324 383.057C983.057 383.697 982.464 383.364 983.582 385.416C983.349 390.056 981.234 390.331 977.597 391.45C975.759 388.492 976.007 389.681 975.977 386.66C977.282 384.498 978.947 384.113 981.324 383.057Z" fill="white"/>
<path d="M669.459 371.156C675.617 371.102 678.992 372.331 681.639 379.339C682.052 380.435 681.414 380.745 680.672 381.799C676.119 383.963 669.827 381.286 667.217 384.603L667.524 386.519C670.846 391.526 673.877 391.063 678.812 389.577L679.307 389.024L679.937 389.769C679.479 390.981 679.119 392.412 677.754 392.948C662.964 398.744 655.697 378.508 669.459 371.156Z" fill="#55565A"/>
<path d="M672.691 380.682C669.309 380.344 669.317 380.959 667.592 378.875C668.004 374.747 670.082 373.73 673.974 374.591C675.977 376.438 676.494 378.419 676.472 381.155L672.691 380.682Z" fill="white"/>
<path d="M672.692 380.682L676.472 381.155L676.644 381.421L676.479 382.021C673.697 382.121 670.824 382.449 668.207 381.704L670.074 381.787L670.494 380.753C671.102 380.935 670.712 380.858 671.762 380.768L672.692 380.682Z" fill="#55565A"/>
<path d="M734.349 382.412C733.299 384.348 733.697 384.244 733.772 386.814C736.457 391.464 740.499 389.162 746.087 390.709L745.884 391.79C741.782 394.795 732.729 394.378 729.677 389.42C725.027 381.888 734.072 366.057 743.229 371.809C745.592 373.292 746.844 377.513 747.287 380.314L747.002 382.065C743.634 383.497 738.077 382.724 734.349 382.412Z" fill="#55565A"/>
<path d="M741.534 380.86C737.544 380.492 737.281 381.077 734.379 379.101L733.749 377.032C735.842 373.491 738.069 373.366 741.377 375.381C742.832 377.711 742.674 378.121 742.764 380.989L741.534 380.86Z" fill="white"/>
<path d="M747.287 380.314L747.002 382.065C743.634 383.497 738.077 382.724 734.349 382.412L735.009 381.417L741.534 380.86L742.764 380.989C744.857 381.451 744.902 381.027 747.287 380.314Z" fill="#454343"/>
<path d="M546.522 371.215C553.641 370.922 557.623 372.432 558.709 380.188C556.591 385.53 549.283 381.033 545.343 383.978L545.153 385.628C546.13 388.139 546.113 388.458 548.118 390.096C550.816 391.196 552.612 390.702 555.462 390.322L556.557 389.376L557.442 389.772C557.335 390.441 557.378 391.397 556.862 391.717C542.664 400.512 532.484 381.339 546.522 371.215Z" fill="#55565A"/>
<path d="M547.391 373.838C550.559 373.919 551.451 374.201 553.583 376.609C554.027 379.126 554.212 378.195 553.217 380.358C550.272 380.388 547.644 380.754 545.356 379.303C545.318 376.523 545.891 376.472 547.391 373.838Z" fill="white"/>
<path d="M814.059 371.214C829.089 370.888 819.587 383.649 824.454 391.972L824.709 392.399L823.779 393.659C820.029 394.396 819.017 391.765 818.124 392.082C814.029 393.536 813.407 394.276 808.629 393.528C800.462 383.897 814.209 382.456 819.137 377.931C818.777 373.629 811.839 374.872 808.884 375.114L808.367 374.297C810.024 372.096 811.457 371.955 814.059 371.214Z" fill="#55565A"/>
<path d="M816.594 382.892L817.659 383.425C819.842 388.229 817.779 389.67 813.609 391.541C811.584 389.056 811.622 389.188 811.562 386.596C812.814 384.45 814.329 384.021 816.594 382.892Z" fill="white"/>
<path d="M906.556 300.638C909.046 300.578 910.921 300.182 912.864 301.539C912.946 303.287 913.089 303.253 912.197 304.719C910.142 304.921 908.919 304.932 906.849 304.887C904.426 307.055 904.284 312.211 905.926 314.698C907.809 314.836 909.226 314.973 911.094 315.251L911.506 316.385L910.756 317.932C908.881 317.658 908.559 317.478 906.864 318.365C903.939 322.929 904.854 330.562 904.989 336.118C905.086 339.485 904.614 339.301 902.139 340.799C896.716 339.451 901.944 324.266 899.296 319.489C897.729 316.671 897.376 319.245 895.336 316.711L895.756 315.273L898.861 314.619C903.204 308.166 896.499 306.849 906.556 300.638Z" fill="#55565A"/>
<path d="M394.161 314.236C398.543 314.073 400.085 313.902 404.109 315.99L404.431 317.722C402.115 319.046 397.814 317.334 393.407 318.933C391.967 324.064 403.145 324.698 406.709 332.842C406.673 338.12 401.576 339.928 397.037 341.114C394.259 340.868 390.261 340.652 388.4 338.57L388.61 336.085C390.87 333.023 391.472 338.553 398.516 337.224C400.709 335.697 400.338 336.441 400.91 334.332C398.954 330.386 391.817 328.418 389.04 324.562C388.207 323.409 387.912 321.953 388.232 320.566C388.923 317.453 391.675 315.77 394.161 314.236Z" fill="#55565A"/>
<path d="M966.527 314.226C969.609 314.287 974.034 314.152 976.172 316.759C975.137 319.046 975.939 318.275 973.854 319.314C969.834 317.273 969.437 316.309 965.499 318.792C964.224 323.871 973.914 324.689 977.822 331.656C978.369 337.334 975.092 338.887 970.307 340.884C967.314 340.86 963.504 340.794 960.999 339.241C959.927 336.887 960.144 337.861 960.894 334.872C964.022 336.551 971.409 340.307 972.654 334.366C969.099 328.867 960.384 328.563 959.694 320.785C961.052 316.959 963.092 315.911 966.527 314.226Z" fill="#55565A"/>
<path d="M633.999 371.171C635.064 371.125 638.416 371.046 639.256 371.517C644.941 374.694 644.536 388.294 642.489 392.862L641.019 393.375L639.714 392.709C636.586 385.303 642.391 378.646 634.179 373.847C624.046 380.138 634.111 388.902 627.631 393.373L626.341 393.068C623.379 388.919 624.504 377.542 625.119 372.562C629.071 371.026 627.984 374.656 633.999 371.171Z" fill="#55565A"/>
<path d="M944.852 314.263C948.249 314.12 950.897 314.365 954.047 315.648C955.022 317.414 954.812 316.646 954.369 318.989C949.052 320.19 949.727 316.284 944.087 318.626C943.329 324.064 969.422 333.282 948.857 340.969C945.722 340.812 942.512 340.769 939.819 339.266C938.619 337.209 938.822 338.307 939.392 335.834C943.134 336.265 949.974 339.449 951.632 334.36C949.389 330.541 942.039 328.591 939.272 324.586C938.447 323.395 938.184 321.905 938.544 320.504C939.369 317.284 942.204 315.756 944.852 314.263Z" fill="#55565A"/>
<path d="M761.147 371.102C764.507 371.045 767.634 371.009 769.134 374.705C771.407 380.335 771.069 387.596 769.254 393.297L767.342 393.476C762.369 390.298 768.789 382.193 764.117 375.806C761.027 374.315 761.597 374.806 757.809 375.03C755.702 378.189 756.459 388.075 756.369 392.552L755.012 393.708L753.459 393.471C750.392 389.599 751.532 377.615 751.967 372.787C755.214 371.218 754.749 375.222 761.147 371.102Z" fill="#55565A"/>
<path d="M416.819 307.405C418.197 309.826 417.712 310.762 417.751 313.866C419.342 315.63 420.323 314.827 423.756 315.3L424.627 316.895C423.035 318.628 421.162 317.356 417.963 318.933C417.21 322.444 416.842 334.54 419.204 337.09C421.053 337.268 422.444 337.165 423.879 338.27L423.965 340.321C404.696 342.886 415.48 327.099 411.877 318.321L408.746 317.583L408.059 316.31L408.617 315.194C410.348 314.933 410.608 315.007 412.166 314.137C412.735 308.96 412.544 309.43 416.819 307.405Z" fill="#55565A"/>
<path d="M1023.23 313.848C1025.82 314.453 1025.93 314.506 1027.32 316.225C1025.79 320.406 1018.73 320.116 1017.67 322.704C1014.97 329.24 1022.7 338.579 1012.95 340.952C1010.96 338.246 1011.7 319.832 1011.88 315.742L1013.32 314.627C1019.62 316.207 1016 319.049 1023.23 313.848Z" fill="#55565A"/>
<path d="M862.614 313.833C865.194 314.473 865.419 314.515 866.604 316.318C865.082 319.757 858.909 319.773 857.439 321.937C853.622 327.555 860.379 336.403 853.734 341.421L851.904 340.188C850.629 337.211 850.367 318.815 851.499 315.413L853.426 314.549C858.106 318.248 858.271 316.802 862.614 313.833Z" fill="#55565A"/>
<path d="M422.628 371.161C426.215 371.09 427.966 371.026 430.984 372.907L431.096 374.582C427.586 376.292 425.164 372.319 421.991 375.148C421.78 380.883 427.849 379.57 432.717 385.087C434.381 390.099 430.76 391.886 426.775 394.014C423.881 393.925 420.02 393.917 417.809 392.046L417.852 390.308C420.073 389.162 422.045 391.242 426.325 391.068C428.323 389.608 427.698 390.55 428.276 388.157C424.986 382.695 408.572 379.983 422.628 371.161Z" fill="#55565A"/>
<path d="M946.914 371.21C951.092 371.03 954.287 370.872 957.084 374.493L956.627 373.759L956.739 375.182L956.964 374.258L956.282 373.493L956.484 375.325L957.009 374.375L956.094 375.426C952.352 375.673 952.802 372.461 946.982 375.111C943.329 379.197 943.067 387.051 947.957 390.39C949.269 391.287 952.862 390.918 954.512 390.826L955.337 390.003L956.357 390.234C955.989 393.929 951.324 394.464 948.452 393.845C935.484 391.051 937.254 376.912 946.914 371.21Z" fill="#55565A"/>
<path d="M651.286 365.495L653.574 365.743C656.326 368.269 652.659 367.737 655.456 371.687L659.454 372.125L660.031 373.07L659.506 374.226C657.924 374.364 656.814 374.492 655.246 374.741C654.331 376.529 653.589 389.764 656.154 390.806C658.321 391.689 657.744 390.082 660.376 392.921C645.294 397.228 651.459 383.415 649.794 375.174C649.652 374.467 647.596 374.172 646.839 373.962L646.584 372.794C647.506 371.874 648.024 371.867 649.284 371.553L649.734 371.445C650.064 368.754 650.064 367.88 651.286 365.495Z" fill="#55565A"/>
<path d="M613.284 361.783C615.519 361.862 615.707 361.905 617.829 362.586C618.804 365.175 618.482 388.684 618.504 393.415C616.232 393.53 615.812 393.705 613.832 392.762C612.737 389 613.239 367.079 613.284 361.783Z" fill="#55565A"/>
<path d="M782.784 371.229C786.489 371.267 789.587 370.619 791.889 373.773L791.492 376.072C780.017 370.117 776.574 381.006 781.922 389.5C783.257 391.624 788.267 390.805 790.757 390.504L791.177 389.906L791.747 390.472C789.744 395.345 781.839 394.654 778.839 391.935C771.512 385.303 773.732 375.441 782.784 371.229Z" fill="#55565A"/>
<path d="M685.516 359.414C687.699 359.667 687.871 359.634 689.791 360.619C690.579 367.05 690.039 386.27 690.076 394.273L686.357 393.257C684.317 390.712 685.441 364.331 685.516 359.414Z" fill="#55565A"/>
<path d="M994.487 359.402C996.572 359.676 996.609 359.695 998.566 360.479C999.354 365.505 998.949 387.532 999.114 394.246L995.559 393.281C993.219 390.465 994.397 364.992 994.487 359.402Z" fill="#55565A"/>
<path d="M889.029 365.559C891.437 365.759 890.874 365.352 892.367 366.68L892.134 370.175C893.484 372.553 893.462 371.241 897.347 372.462L897.317 373.862C895.584 374.468 894.744 374.439 892.952 374.566C891.722 377.801 892.239 381.211 892.187 384.51C892.037 393.203 894.174 389.216 897.834 392.597C883.052 399.105 889.637 381.122 887.447 374.754L884.559 373.911L884.424 372.566C885.489 372.19 886.562 371.834 887.634 371.496C887.979 368.792 888.069 368.092 889.029 365.559Z" fill="#55565A"/>
<path d="M697.494 314.677C699.752 314.898 701.409 314.649 702.909 315.887C703.644 322.624 703.262 333.247 703.202 340.316C700.247 340.28 700.562 340.732 698.417 339.41C696.504 334.731 697.614 321.281 697.494 314.677Z" fill="#55565A"/>
<path d="M377.01 314.842C379.486 314.797 379.922 314.668 382.189 315.488C382.951 320.527 382.58 334.487 382.556 340.238C380.408 340.355 379.788 340.595 378.028 339.565C375.903 335.13 377.043 321.043 377.01 314.842Z" fill="#55565A"/>
<path d="M922.254 370.846C924.954 371.683 924.542 371.108 925.974 372.96C924.812 375.355 918.722 376.46 918.204 378.01C916.382 383.477 920.199 389.31 916.037 394.217L914.147 393.141C912.842 390.478 912.227 374.711 914.019 372.174C918.152 370.865 914.822 372.85 919.554 373.447L922.254 370.846Z" fill="#55565A"/>
<path d="M879.009 370.799C881.867 371.636 881.416 371.025 882.864 372.964C881.769 374.88 878.176 375.288 874.891 377.886C872.701 384.322 877.501 390.228 871.614 394.362C869.056 391.578 868.562 373.73 871.412 371.616C873.137 372.73 873.917 373.481 875.897 373.663L879.009 370.799Z" fill="#55565A"/>
<path d="M961.471 371.74C963.144 371.706 963.751 371.844 965.349 372.12C967.809 375.502 966.631 388.479 966.556 393.444C964.756 393.493 964.419 393.589 962.686 392.915C960.654 389.651 961.584 376.897 961.471 371.74Z" fill="#55565A"/>
<path d="M929.784 371.447L933.189 371.927C935.964 375.086 934.719 388.834 934.614 393.603C933.256 393.45 932.469 393.251 931.149 392.96C928.786 389.618 929.829 376.656 929.784 371.447Z" fill="#55565A"/>
<path d="M901.749 371.47C903.542 371.625 903.924 371.585 905.634 372.32C907.772 376.141 906.736 388.501 906.676 393.646C904.884 393.429 904.719 393.34 903.084 392.776C901.074 389.505 901.914 376.708 901.749 371.47Z" fill="#55565A"/>
<path d="M796.982 371.562L800.417 372.044C802.892 375.075 801.781 388.967 801.706 393.513C800.274 393.483 799.599 393.345 798.197 393.12C795.984 390.005 797.027 376.636 796.982 371.562Z" fill="#55565A"/>
<path d="M696.602 371.616L699.932 372.112C702.452 375.352 701.364 388.757 701.334 393.698L697.877 393.028C695.529 389.844 696.587 376.552 696.602 371.616Z" fill="#55565A"/>
<path d="M377.799 303.314C378.854 302.583 380.228 302.502 381.362 303.102C382.496 303.703 383.201 304.886 383.19 306.169C383.179 307.452 382.454 308.623 381.309 309.203C379.698 310.021 377.729 309.451 376.803 307.899C375.878 306.346 376.313 304.342 377.799 303.314Z" fill="#454343"/>
<path d="M698.424 303.311C699.512 302.592 700.906 302.554 702.024 303.214C703.149 303.873 703.794 305.114 703.697 306.411C703.592 307.707 702.759 308.833 701.551 309.311C699.931 309.949 698.094 309.262 697.284 307.719C696.482 306.175 696.977 304.272 698.424 303.311Z" fill="#454343"/>
<path d="M741.654 360.385C743.904 360.972 743.124 360.35 744.339 361.874C743.799 364.356 741.092 366.717 739.239 368.73C737.289 368.573 738.174 368.88 736.539 367.675C736.982 365.455 740.027 362.327 741.654 360.385Z" fill="#55565A"/>
<path d="M156.62 22.6657C157.919 21.5636 159.863 21.7092 160.983 22.992C162.104 24.2748 161.987 26.22 160.721 27.3596C159.886 28.112 158.71 28.3566 157.643 27.998C156.578 27.6401 155.787 26.7354 155.576 25.6304C155.363 24.5261 155.763 23.3926 156.62 22.6657Z" fill="#004687"/>
</svg>
