<svg width="187" height="156" viewBox="0 0 187 156" fill="none" xmlns="http://www.w3.org/2000/svg">
<path d="M47.5452 3.02631C48.9167 1.09881 50.3462 0.167063 52.7555 0.0835634C56.497 -0.0461866 60.2542 0.012313 63.9995 0.018313L84.5197 0.0393129L100.2 0.0715624C102.183 0.0750624 106.385 -0.036687 108.09 0.174563C108.589 0.812313 108.368 1.13256 108.306 2.15206C108.498 7.62556 108.379 14.0423 108.308 19.5643C104.004 19.6546 99.6985 19.6788 95.3935 19.6371C87.9932 19.6371 75.4927 19.3141 68.5352 20.0798C67.8947 30.4096 68.5032 42.4073 68.2295 52.9708C64.3377 53.4853 59.1615 53.2331 55.1687 53.2618C49.2237 53.1436 47.3255 50.7856 47.473 45.1566C47.8382 31.2181 47.0515 16.9111 47.5452 3.02631Z" fill="#377EF6"/>
<path d="M95.3936 19.637C100.496 18.2922 101.483 21.805 105.512 15.499C106.457 14.02 106.575 12.4432 107.361 10.9665L107.495 11.0317C107.62 11.753 107.523 14.101 107.573 15.008C108.014 14.0415 107.791 4.57698 108.259 2.36623L108.306 2.15198C108.499 7.62548 108.38 14.0422 108.308 19.5642C104.004 19.6545 99.6986 19.6787 95.3936 19.637Z" fill="#5150E4"/>
<path d="M94.6875 32.0455L115.25 31.9773C119.277 31.973 128.069 31.2578 130.912 34.0725C131.867 35.0133 132.502 36.23 132.729 37.5513C133.438 41.5763 132.912 47.326 132.898 51.4975C132.871 59.6678 133.007 67.8485 132.933 76.016C132.912 78.4225 132.72 81.1213 130.91 82.9178C128.317 85.4913 114.163 84.5365 110.24 84.523C109.848 77.4435 110.394 69.7438 110.254 62.5828C110.199 59.7173 110.405 56.2443 110.001 53.4278C101.205 52.7418 88.357 53.4073 79.1072 53.2233C79.062 51.822 78.9385 49.8168 79.021 48.4698C78.8312 43.3233 79.0135 37.2188 79.037 32.002L94.6875 32.0455Z" fill="#753EE0"/>
<path d="M79.037 32.002L94.6875 32.0454C89.76 33.0874 90.0342 32.241 88.271 37.6557C86.7942 42.19 83.755 45.5404 79.457 47.5744L79.021 48.4697C78.8312 43.3232 79.0135 37.2187 79.037 32.002Z" fill="#4067EB"/>
<path d="M86.5662 115.923C94.2402 116.13 109.952 114.545 115.428 118.891C125.245 126.684 122.049 141.086 109.001 143.673C104.113 144.404 100.225 144.251 95.2781 144.227L95.2849 154.871C92.3605 154.835 89.435 154.841 86.5105 154.887C86.4545 141.899 86.4727 128.911 86.5662 115.923ZM97.5135 122.852C96.7335 122.869 95.974 122.765 95.4178 123.227C95.1178 125.315 95.2792 134.798 95.3797 137.192C98.8892 137.225 106.385 137.734 109.333 136.033C114.892 131.861 112.522 123.622 105.626 123.062C102.861 122.837 100.289 122.855 97.5135 122.852Z" fill="#222F4F"/>
<path d="M52.8203 65.6081C67.725 65.4499 83.6526 65.5516 98.5508 65.7451L98.5286 84.4834L93.3328 84.5171L47.5583 84.5094C47.4061 78.4234 47.5343 71.7689 47.5408 65.6404L52.8203 65.6081Z" fill="#554DE5"/>
<path d="M65.3224 115.979C66.2266 118.969 69.6232 126.132 71.049 129.471L81.7081 154.956C78.7416 154.725 75.0125 154.816 71.9952 154.814C71.176 151.924 69.7094 148.8 68.4152 146.085L66.4747 146.104C60.8983 145.992 55.1967 146.234 49.6173 146.041C48.9903 148.406 47.2341 152.713 46.1124 154.841L37.2609 154.769C38.4859 150.824 40.8011 146.07 42.3575 142.131C45.8035 133.41 49.7421 124.711 53.129 115.985L65.3224 115.979ZM59.0538 123.129C56.5475 127.427 54.5088 135.028 52.2159 139.501L59.3693 139.565L65.8302 139.529C65.0745 137.413 59.9968 124.112 59.0538 123.129Z" fill="#222F4F"/>
<path d="M158.006 115.836C160.379 116.116 167.185 115.96 169.937 115.958C171.058 119.358 173.729 124.913 175.166 128.39C178.775 137.12 182.96 146.095 186.283 154.917C183.362 154.825 179.82 154.938 176.854 154.957C176.141 152.624 174.286 148.632 173.322 146.102L170.35 146.07C165.36 146.021 159.151 146.313 154.31 146.02C153.314 149.056 151.795 152.011 150.898 154.973C147.845 154.984 144.652 154.878 141.588 154.817C142.509 153.164 143.726 150.038 144.485 148.223L149.316 136.685L154.654 123.891C155.626 121.62 157.34 118.091 158.006 115.836ZM163.589 123.42C161.501 128.295 158.911 134.58 157.003 139.477L163.549 139.562L170.477 139.489C169.593 137.255 164.742 124.456 163.589 123.42Z" fill="#222F4F"/>
<path d="M14.441 114.832C20.3943 113.883 27.42 115.548 32.7867 118.208C32.17 120.174 31.6733 122.776 31.447 124.825C27.0023 122.943 21.8418 121.569 16.9785 121.558C15.3478 121.554 11.3998 122.364 10.3083 123.623C9.72325 124.298 9.35225 125.458 9.47375 126.327C10.3715 132.75 26.9435 131.185 31.5405 136.58C33.4095 138.378 34.1618 140.255 34.2985 142.889C34.811 152.782 25.6565 155.707 17.462 155.96C15.7965 155.968 14.1318 155.876 12.477 155.686C9.321 155.309 2.015 154.135 0 151.58C0.23875 149.749 1.0555 146.883 1.5335 145.011C2.41575 145.125 4.93275 146.686 6.018 147.081C10.3228 148.791 13.8057 149.17 18.2817 149.29C23.883 149.44 27.5468 143.49 22.5655 141.005C15.6488 137.554 1.607 139.186 0.478252 128.306C-0.495748 118.919 6.48225 115.623 14.441 114.832Z" fill="#222F4F"/>
<path d="M127.547 115.972L136.623 115.996C136.612 128.846 136.429 142.117 136.712 154.933L127.546 154.785C127.249 142.284 127.503 128.552 127.547 115.972Z" fill="#222F4F"/>
</svg>
